<?xml version="1.0" encoding="UTF-8"?>
<svg id="Capa_1" xmlns="http://www.w3.org/2000/svg" version="1.1" viewBox="0 0 228.66 39.08">
  <!-- Generator: Adobe Illustrator 29.6.1, SVG Export Plug-In . SVG Version: 2.1.1 Build 9)  -->
  <defs>
    <style>
      .st0 {
        fill: #fff;
      }

      .st1, .st2, .st3 {
        fill: #fed136;
      }

      .st2 {
        stroke: #f2cc41;
      }

      .st2, .st3 {
        stroke-miterlimit: 10;
        stroke-width: .45px;
      }

      .st3 {
        stroke: #f2cc3f;
      }
    </style>
  </defs>
  <g>
    <path class="st3" d="M26.53,26.12c.17,0,.23.11.09.38-2.32,4.22-9.13,9.47-15.45,9.47-1.49,0-2.95-.29-4.3-.95-5.44-2.66-4.6-9.61-3.52-13.99,1.31-5.41,3.85-10.96,7.69-15.44,1.31-1.51,3.68-3.75,5.87-3.75.99,0,1.93.46,2.73,1.64,2.25,3.37.69,8.76-.45,12.26-.13.4-1.27,1.13-1.68,1.13-.13,0-.2-.07-.15-.23,1.09-3.32,3.01-9.32.2-12.28-.63-.66-1.25-.92-1.92-.92-3.32,0-6.83,7.38-7.65,9.05-2.45,4.97-4.75,11.29-3.09,16.68,1.12,3.62,3.91,5.04,7.11,5.04,4.94,0,10.83-3.37,12.91-7.15.2-.33,1.2-.92,1.61-.92h0v-.02Z"/>
    <path class="st1" d="M36.62,24.32c-.74.74-2.76,2.81-4.16,2.81-1.27,0-1.43-1.84-1.53-2.91-.79,1.42-2.65,3.77-4.16,3.77-1,0-1.9-1.51-2.29-2.4-1.13-2.7.23-5.81,1.99-7.8.6-.66,1.5-1.55,2.45-1.55.07,0,.14.02.21.02.95.18,1.67,1.28,2.2,2.15.11-.46.21-.89.3-1.33,0-.05.03-.07.07-.07.27,0,1.27,1.35,1.18,1.97-.03.02-.03.05-.03.07v.02c0,1.3.03,2.63.14,3.95.04.56.04,1.58.56,1.89.09.05.21.11.32.11.72,0,1.62-1.13,2.02-1.53.16-.15.67-.66,1.04-.66.09,0,.16.02.23.11.32.38-.3,1.17-.53,1.4h0v-.02ZM31,19.48c-.07-.07-.11-.18-.16-.26-.32-.56-.7-.77-1.11-.77-1.16,0-2.52,1.76-3.1,2.7-.6.97-2.04,4.57-.7,4.57.23,0,.53-.11.92-.33,2.02-1.15,3.35-3.5,4.14-5.92h0Z"/>
    <path class="st1" d="M50.41,27.18c-.37,0-.76-.2-1.11-.62-.9-1.07-1.07-2.95-1.08-4.77-1.53,2.15-3.24,4.1-5.11,5.87-.04.05-.09.07-.16.07-.46,0-1.08-1.71-1-2.06.42-1.89.56-3.83.4-5.76-1.08,1.53-2.09,3.14-3.17,4.7-.42.58-1.2,2.15-1.97,2.24-.44.07-.92-1.09-1.01-1.4-.7-2.35.52-5.79.95-8.14,0-.05.03-.07.07-.07.27,0,1.27,1.35,1.16,1.97-.21,1.13-.79,3.04-1.01,4.7.79-1.02,1.62-2.7,2.04-3.34.86-1.25,1.68-2.53,2.61-3.72.03-.05.07-.07.11-.07.34,0,.97,1.28.99,1.42.46,1.89.65,3.83.56,5.76,1.62-1.81,3.14-3.72,4.58-5.74.07-.11.14-.13.21-.13.46,0,1.01,1.55,1.04,1.86.07,1.15.23,5.23,1.18,5.43h.07c1,0,3.08-3.7,4.47-4.72.44-.33-2.38,6.53-4.79,6.53h0Z"/>
    <path class="st1" d="M60.36,23.74c.42,0,1.37,1.51,1.11,1.99-.85,1.71-2.65,3.37-4.3,3.37-.88,0-1.71-.49-2.36-1.66-1.34-2.5-.32-5.92.65-8.42.03-.05.07-.11.11-.11.37,0,1.34,1.46,1.11,2.02-.76,1.84-1.18,3.88-1.18,5.89l.14.07h.07c.25,0,.56.11.86.11h.07c.74-.13,1.43-.49,1.99-1.04.65-.58,1.18-1.3,1.6-2.12.03-.07.09-.11.14-.11h0ZM55.71,17.59c-.56,0-1.46-1.86-.99-2.12.58-.33,1.13-.64,1.71-.91.18-.07.37-.18.58-.18.09,0,.18.02.3.11.52.36,1.2,1.55.7,2.15-.03.02-.07.05-.09.05-.04,0-.11-.05-.21-.11-.04.02-.09.05-.14.07-.58.23-1.2.58-1.74.91-.04.02-.07.02-.11.02h-.02Z"/>
    <path class="st1" d="M68.5,23.26c.18,0,.23.15.07.53-.83,1.81-2.5,5.3-4.76,5.3-2.59,0-2.94-3.9-3.08-6.02-.42-6.25.6-12.76,1.75-18.88.11-.58,1.3-1.58,1.75-1.58.16,0,.23.07.18.33-.76,4.01-1.3,8.06-1.62,12.14-.21,2.83-.44,5.94.16,8.75.37,1.71,1.04,2.75,1.85,2.75.6,0,1.27-.62,1.92-2.04.21-.46,1.32-1.3,1.75-1.3h0l.02.02Z"/>
    <path class="st1" d="M79.91,24.32c-.74.74-2.76,2.81-4.16,2.81-1.27,0-1.43-1.84-1.53-2.91-.79,1.42-2.65,3.77-4.16,3.77-.99,0-1.9-1.51-2.29-2.4-1.13-2.7.23-5.81,1.99-7.8.6-.66,1.5-1.55,2.45-1.55.07,0,.14.02.21.02.95.18,1.67,1.28,2.2,2.15.11-.46.21-.89.3-1.33,0-.05.03-.07.07-.07.27,0,1.27,1.35,1.18,1.97-.03.02-.03.05-.03.07v.02c0,1.3.03,2.63.14,3.95.04.56.04,1.58.56,1.89.09.05.21.11.32.11.72,0,1.62-1.13,2.02-1.53.16-.15.67-.66,1.04-.66.09,0,.16.02.23.11.32.38-.3,1.17-.53,1.4h0v-.02ZM74.28,19.48c-.07-.07-.11-.18-.16-.26-.32-.56-.7-.77-1.11-.77-1.16,0-2.52,1.76-3.1,2.7-.6.97-2.04,4.57-.7,4.57.23,0,.53-.11.92-.33,2.02-1.15,3.35-3.5,4.14-5.92h0Z"/>
    <path class="st2" d="M108.38,10.74c-1.81,4.03-5.54,6.86-8.69,9.16-1.01.74-2.02,1.45-3.07,2.13l-1.37,14.57c-.03.48-.89,1.32-1.26,1.32-.14,0-.21-.09-.19-.31l1.38-14.65c-.85.53-1.74,1.07-2.61,1.55-.1.06-.19.09-.24.09-.43,0,.41-1.45.8-1.67.72-.39,1.43-.81,2.17-1.24l1.25-13.15c.03-.48.89-1.3,1.26-1.3.12,0,.19.09.17.29l-1.25,13.29c3.54-2.17,7.11-4.83,9.55-8.29,2.96-4.21-.12-7.16-3.71-8.4-1.13-.39-2.33-.55-3.54-.55-3.21,0-6.53,1.28-9.06,3.55-.24.22-.41.31-.53.31-.38,0-.15-.95.36-1.38,2.87-2.6,6.6-4.19,10.24-4.19,1.11,0,2.21.15,3.26.46,3.49,1.01,7.18,3.75,5.04,8.44v-.02h.03Z"/>
    <path class="st1" d="M112.99,22.01c.46,0,.53.62-.18,1.38-1.39,1.42-4.33,4.19-6.74,4.19-.9,0-1.74-.38-2.38-1.33-1.67-2.37.23-5.54,1.8-7.27.44-.49,2.24-2.12,3.24-2.12.44,0,.72.31.67,1.13-.11,2.09-2.1,4.77-4,6.14.46.82,1.2,1.28,2.09,1.28,1.68,0,3.5-1.73,4.55-2.86.37-.38.7-.53.95-.53h0ZM105.06,22.79c.67-.38,3.05-3.17,2.38-3.75-.04-.05-.11-.05-.16-.05-.52,0-1.37,1.22-1.57,1.55-.42.66-.65,1.42-.65,2.24h0Z"/>
    <path class="st1" d="M122.69,21.9c.14,0,.21.31.03,1.07-.37,1.58-1.25,2.99-2.45,2.99-.3,0-.63-.11-.97-.31-1.6-.95-1.55-3.06-1.8-4.97-.11.13-.21.2-.25.28-.65.89-1.2,1.86-1.75,2.83-.85,1.48-1.68,2.95-2.47,4.46-.04.11-.11.13-.16.13-.44,0-1.16-1.61-1.08-2.02l2.57-11.5s.04-.07.07-.07c.3,0,1.3,1.35,1.16,1.97l-1.01,4.54c.63-1.2,1.6-3.11,2.41-3.37.07-.02.14-.02.21-.02.85,0,1.25,1.53,1.39,2.3.23,1.25.3,3.37,1.2,4.1.25.2.52.28.74.28.93,0,1.68-1.22,1.9-2.19.07-.31.21-.49.32-.49h-.03Z"/>
    <path class="st1" d="M134.87,24.32c-.74.74-2.76,2.81-4.16,2.81-1.27,0-1.43-1.84-1.53-2.91-.79,1.42-2.65,3.77-4.16,3.77-.99,0-1.9-1.51-2.29-2.4-1.13-2.7.23-5.81,1.99-7.8.6-.66,1.5-1.55,2.45-1.55.07,0,.14.02.21.02.95.18,1.67,1.28,2.2,2.15.11-.46.21-.89.3-1.33,0-.05.03-.07.07-.07.27,0,1.27,1.35,1.18,1.97-.03.02-.03.05-.03.07v.02c0,1.3.03,2.63.14,3.95.04.56.04,1.58.56,1.89.09.05.21.11.32.11.72,0,1.62-1.13,2.02-1.53.16-.15.67-.66,1.04-.66.09,0,.16.02.23.11.32.38-.3,1.17-.53,1.4h0v-.02ZM129.25,19.48c-.07-.07-.11-.18-.16-.26-.32-.56-.7-.77-1.11-.77-1.16,0-2.52,1.76-3.1,2.7-.6.97-2.04,4.57-.7,4.57.23,0,.53-.11.93-.33,2.02-1.15,3.35-3.5,4.14-5.92h0Z"/>
  </g>
  <path class="st1" d="M116.85,14.25c-.58-.15-1.29-1.88-.78-1.97.64-.11,1.24-.2,1.86-.27.21-.01.4-.04.61.01.09.02.19.07.3.16.49.43,1.06,1.57.47,1.9-.03.01-.08.02-.1.01-.05-.01-.11-.07-.21-.14-.05,0-.1.01-.15.02-.62.02-1.31.14-1.89.27-.05,0-.08,0-.12-.01h0v.02Z"/>
  <g>
    <path class="st0" d="M145.62,10.26h-2.56v4.75h-2.02V1.37h4.58c.98,0,1.84.16,2.57.51s1.29.83,1.7,1.48c.41.65.6,1.45.6,2.41s-.2,1.76-.6,2.41c-.41.67-.97,1.17-1.7,1.53-.73.36-1.59.54-2.57.54h0ZM145.61,3.15h-2.54v5.35h2.54c.9,0,1.6-.24,2.11-.72s.76-1.14.76-1.97-.25-1.5-.76-1.97c-.51-.46-1.21-.69-2.11-.69Z"/>
    <path class="st0" d="M154.5,15.01h-2.02V1.37h4.93c1.52,0,2.71.38,3.57,1.11.86.73,1.29,1.79,1.29,3.15,0,.98-.28,1.81-.84,2.53-.56.72-1.35,1.19-2.35,1.42l3.58,5.43h-2.43l-3.29-5.12h-2.43v5.12h-.01ZM154.5,3.13v5.01h2.78c.93,0,1.66-.21,2.16-.64.52-.42.77-1.04.77-1.88s-.25-1.45-.77-1.88c-.52-.42-1.24-.64-2.16-.64h-2.78v.02Z"/>
    <path class="st0" d="M170.35,15.31c-.96,0-1.84-.18-2.66-.54s-1.53-.86-2.14-1.52c-.6-.65-1.08-1.4-1.42-2.27s-.51-1.79-.51-2.81.17-1.93.51-2.79.81-1.62,1.42-2.25,1.32-1.14,2.14-1.5,1.7-.54,2.66-.54,1.84.18,2.66.54,1.53.86,2.14,1.5c.6.64,1.08,1.39,1.42,2.25.34.86.51,1.79.51,2.79s-.17,1.94-.51,2.81-.81,1.63-1.42,2.27c-.6.65-1.32,1.14-2.14,1.52s-1.7.54-2.66.54ZM170.35,13.43c.7,0,1.33-.13,1.9-.39.56-.26,1.05-.64,1.46-1.13.41-.47.72-1.04.94-1.68.21-.64.32-1.32.32-2.04s-.11-1.4-.32-2.04-.53-1.19-.94-1.66c-.41-.47-.9-.85-1.46-1.11s-1.19-.39-1.9-.39-1.33.13-1.9.39-1.05.64-1.46,1.11-.73,1.03-.94,1.66-.32,1.31-.32,2.04.11,1.4.32,2.04.53,1.21.94,1.68.9.85,1.46,1.13c.56.26,1.19.39,1.9.39Z"/>
    <path class="st0" d="M183.3,15.01h-4.17V1.37h4.17c1.4,0,2.61.29,3.61.86s1.74,1.37,2.26,2.38.77,2.19.77,3.51-.27,2.5-.79,3.52c-.53,1.03-1.29,1.84-2.29,2.45s-2.18.9-3.55.9v.02ZM181.15,3.18v10.04h2.07c1.01,0,1.87-.21,2.57-.62.69-.41,1.22-1,1.57-1.76s.53-1.66.53-2.69-.18-1.91-.53-2.64-.89-1.31-1.57-1.71c-.69-.39-1.55-.6-2.57-.6,0,0-2.07,0-2.07,0Z"/>
    <path class="st0" d="M202.18,1.37v8.73c0,1.04-.21,1.94-.62,2.72-.41.78-1,1.39-1.76,1.81s-1.67.65-2.74.65-1.97-.21-2.73-.65c-.76-.42-1.35-1.03-1.76-1.81-.41-.78-.62-1.68-.62-2.72V1.37h2.02v8.79c0,.65.13,1.22.37,1.71s.59.86,1.05,1.13c.45.26,1.01.39,1.66.39s1.22-.13,1.69-.39.81-.64,1.05-1.13.35-1.06.35-1.71V1.37h2.02Z"/>
    <path class="st0" d="M210.71,15.31c-.93,0-1.77-.18-2.57-.54s-1.49-.86-2.08-1.52-1.05-1.4-1.39-2.27c-.34-.86-.49-1.79-.49-2.81s.17-1.93.49-2.79c.34-.86.8-1.62,1.39-2.25s1.29-1.14,2.08-1.5,1.64-.54,2.57-.54c1.11,0,2.11.23,3.02.7s1.67,1.13,2.28,1.97c.6.85,1,1.84,1.15,2.97h-2.15c-.13-.73-.39-1.39-.79-1.96-.41-.57-.9-1.01-1.5-1.32-.59-.31-1.26-.47-1.99-.47-.65,0-1.25.13-1.8.38-.55.26-1.01.62-1.42,1.08s-.7,1.01-.91,1.65-.32,1.32-.32,2.09.11,1.45.32,2.1c.21.64.52,1.19.91,1.66s.87.83,1.42,1.09,1.14.39,1.8.39c.73,0,1.4-.16,2.01-.49.6-.33,1.1-.77,1.5-1.34.39-.57.66-1.22.79-1.96h2.15c-.15,1.13-.55,2.12-1.15,2.97-.6.85-1.36,1.52-2.28,1.99-.91.47-1.92.72-3.02.72v-.02Z"/>
    <path class="st0" d="M224.01,15.01h-2.02V3.25h-4.3v-1.88h10.63v1.88h-4.3v11.76h-.01Z"/>
    <path class="st0" d="M157.45,38.1c-.96,0-1.84-.18-2.66-.54s-1.53-.86-2.14-1.52c-.6-.65-1.08-1.4-1.42-2.27s-.51-1.79-.51-2.81.17-1.93.51-2.79c.34-.86.81-1.62,1.42-2.25s1.32-1.14,2.14-1.5,1.7-.54,2.66-.54,1.84.18,2.66.54,1.53.86,2.14,1.5c.6.64,1.08,1.39,1.42,2.25.34.86.51,1.79.51,2.79s-.17,1.94-.51,2.81-.81,1.63-1.42,2.27c-.6.65-1.32,1.16-2.14,1.52-.81.36-1.7.54-2.66.54ZM157.45,36.23c.7,0,1.33-.13,1.9-.41s1.05-.64,1.46-1.13c.41-.47.72-1.04.94-1.68s.32-1.32.32-2.04-.11-1.4-.32-2.04-.53-1.19-.94-1.66-.9-.85-1.46-1.11-1.19-.41-1.9-.41-1.33.13-1.9.41c-.56.26-1.05.64-1.46,1.11s-.73,1.03-.94,1.66-.32,1.31-.32,2.04.11,1.4.32,2.04.53,1.21.94,1.68.9.85,1.46,1.13,1.19.41,1.9.41Z"/>
    <path class="st0" d="M175.82,37.81l-2.8-10.69-2.81,10.69h-2.08l-3.44-13.64h1.98l2.54,10.51,2.78-10.51h2.09l2.74,10.52,2.54-10.52h1.98l-3.44,13.64h-2.09Z"/>
    <path class="st0" d="M191.95,37.81l-6.95-10.66v10.66h-1.88v-13.64h2.21l6.79,10.38v-10.38h1.87v13.64h-2.04.01Z"/>
    <path class="st0" d="M205.17,36v1.83h-8.37v-13.64h8.23v1.83h-6.21v3.88h5.66v1.83h-5.66v4.29h6.35v-.02Z"/>
    <path class="st0" d="M209.53,37.81h-2.02v-13.64h4.93c1.52,0,2.71.38,3.57,1.11s1.29,1.79,1.29,3.15c0,.98-.28,1.81-.84,2.53s-1.35,1.19-2.35,1.42l3.58,5.43h-2.43l-3.29-5.12h-2.43v5.12h-.01ZM209.53,25.93v5.01h2.78c.93,0,1.66-.21,2.16-.64.52-.42.77-1.04.77-1.88s-.25-1.45-.77-1.88-1.24-.64-2.16-.64h-2.78v.02Z"/>
  </g>
</svg>